PathFileType	4	(X/Y/Z)	61_2_14_p0_0-1137_filt_butterworth.trc
DataRate	CameraRate	NumFrames	NumMarkers	Units	OrigDataRate	OrigDataStartFrame	OrigNumFrames
55.0	55.0	7	27	m	55.0	852	1137
Frame#	Time	RHip			RKnee			RAnkle			RBigToe			RSmallToe			RHeel			LHip			LKnee			LAnkle			LBigToe			LSmallToe			LHeel			Neck			Head			Nose			RShoulder			RElbow			RWrist			RThumb			RIndex			RPinky			LShoulder			LElbow			LWrist			LThumb			LIndex			LPinky			
		X1	Y1	Z1	X2	Y2	Z2	X3	Y3	Z3	X4	Y4	Z4	X5	Y5	Z5	X6	Y6	Z6	X7	Y7	Z7	X8	Y8	Z8	X9	Y9	Z9	X10	Y10	Z10	X11	Y11	Z11	X12	Y12	Z12	X13	Y13	Z13	X14	Y14	Z14	X15	Y15	Z15	X16	Y16	Z16	X17	Y17	Z17	X18	Y18	Z18	X19	Y19	Z19	X20	Y20	Z20	X21	Y21	Z21	X22	Y22	Z22	X23	Y23	Z23	X24	Y24	Z24	X25	Y25	Z25	X26	Y26	Z26	X27	Y27	Z27	
852	15.49090909090909	0.03895739064774024	1.001271545196491	1.0914197254380205	0.1902927984938869	1.0271173710021264	1.4320101135037062	0.0870477097398985	1.1544108104886524	1.8068327347031055	0.2560521893444103	1.1731933025289865	1.8946025790613519	0.22726835977730356	1.1668699062836299	1.8733267497601402	0.022924883313933206	1.1906057737878704	1.8680602228480774	-0.016774759595694622	0.6763621727121041	1.0709639543811054	0.2040699136545781	0.6023972167715538	1.3974603098504719	0.22140654950145927	0.6366642670387894	1.8020394758270166	0.3273080691375275	0.7553040962688147	1.8349833928124462	0.2991166382126427	0.6873320301407666	1.842328714625666	0.15922912306251058	0.6501353222767415	1.8393188126465811	0.23096205147202037	0.592025059709861	0.5890776605185902	0.3446492292585639	0.4686599721468172	0.38261395233484524	0.34329552706621813	0.47126958013879294	0.5128034049769449	0.25302821356922395	0.8037532574132078	0.598313887439151	0.5005840156487664	0.6295865062451241	0.615424397374423	0.5477477407467227	0.33033012917797	0.6099338569869798	0.6096240361941966	0.12078339217747477	0.6153611479694424	0.6248640259034344	0.11874190268117774	0.6144309998478847	0.6120455021454876	0.17539451521929636	0.6209036920466431	0.17186904985256402	0.4408989035166898	0.6035885851430982	0.33170859260876107	0.3072062947271941	0.6536830773331229	0.5149276187372319	0.13420069881448918	0.621213186995576	0.5786406494247618	0.028028394789412662	0.6203871046000958	0.5942385249553709	0.033864600486883764	0.6080335054090932	0.5884491187516819	0.06464210191825635	0.6188452083575362
853	15.50909090909091	0.03148844782221251	1.0073339776223624	1.0897793442418269	0.18743255307533413	1.021253788317079	1.4254780716876838	0.08454288420613644	1.1517312966378186	1.8059884121980638	0.2566770845801266	1.1728454557734982	1.8950394182357941	0.2267016751380092	1.1635630156199974	1.869840963610192	0.022365166266105588	1.1964754052282842	1.869528254561918	-0.015061905485165651	0.6708883778847217	1.0686125917953522	0.202521677041007	0.6063769268234475	1.3975107705411074	0.2217275675249854	0.6371116029454428	1.802745849015707	0.32527448927904956	0.762089773927218	1.8386798887142692	0.29995402694578743	0.6901694773805148	1.8431452531434735	0.159099807502448	0.6490767333568623	1.837521492765476	0.23323226954462956	0.5891529461328701	0.587811257399308	0.34108046465505176	0.46525232906783776	0.3796678180161459	0.3430394933389259	0.4697498800934822	0.5081003297335345	0.2542588150433561	0.8060419841745992	0.5949174786009948	0.4890947880151127	0.6480756581238427	0.6153420385220103	0.5449791329708428	0.36356478494213934	0.6094559819467955	0.6028240993175039	0.1380977541266007	0.6161636944632964	0.6187461530820492	0.14014677276633938	0.6141027050880463	0.6066891608812852	0.2002764814867063	0.6254967547242183	0.17663053688123784	0.4306641205844726	0.6044229053020921	0.3402566165429074	0.3132971860825135	0.6576665481064873	0.5261517235519778	0.14262131510162604	0.6252993015686211	0.5801464118276733	0.025212867034292798	0.6267546575245801	0.5980734448468251	0.03522960838696942	0.6179127234566685	0.5995188234813538	0.07343366637869086	0.6178643558051922
854	15.527272727272727	0.02738860576378427	1.0121348782564756	1.0868748690910568	0.18634563200674467	1.0232576397199826	1.4215507139609647	0.08241029652837949	1.1491625029630272	1.80502716287944	0.2540798659524677	1.172884216900298	1.8948448834889473	0.22607634007179353	1.1557448579859757	1.864532943044583	0.021258363385391832	1.2002137899556429	1.8712831088117645	-0.013477814254546649	0.6668403937099904	1.0656530979085703	0.20237459314253398	0.60755343566257	1.3970023592169003	0.22200473902412715	0.6386057935558435	1.8047661872186869	0.3282662344182808	0.7577070965631784	1.8367712443759356	0.30207619951544246	0.6872360978873263	1.8423424041990741	0.1589723358017995	0.6458308487074202	1.8361886958188438	0.23629858095128253	0.5896349306020326	0.5878214376365902	0.3374046996472919	0.4562941520205038	0.37795204785657366	0.34231055822656853	0.468351074099878	0.5057696708392933	0.2555620553689933	0.8140381141064903	0.59120440137305	0.4764720482983012	0.67871496744313	0.615080085561758	0.5407672675515558	0.4194489874015026	0.6091975820966642	0.5818632992110615	0.19837060081725377	0.6168094768392851	0.5995059262856246	0.20622584272140532	0.6136349675114182	0.5921800321534316	0.26337608734538737	0.6276220416057892	0.18165361924386242	0.4229749057856104	0.6064147866272068	0.35141836631741163	0.31269360928793716	0.6628250230865647	0.5342926930701171	0.1457719485609038	0.6281290849299267	0.5805562598039009	0.024910780821943486	0.630119744395533	0.600989800077026	0.03900461095393411	0.6244489775116496	0.6072584783322605	0.07953666653573407	0.618903404226005
855	15.545454545454543	0.021957620340721146	1.018037181127396	1.0842303787562084	0.18575935920284675	1.0331778904533007	1.4199638497013454	0.07917101126886288	1.1468675959005687	1.8031854506485951	0.24912669176917718	1.172003390839682	1.8930719433402972	0.22402330081537747	1.1489016678752262	1.8608792779117578	0.01988032495667449	1.1997888508845858	1.8739952497763095	-0.012941343728421283	0.665273921852102	1.0632182491551276	0.2025367480358631	0.6075867520674161	1.3971470228306946	0.22253050504645677	0.6397764574618172	1.8078479494384894	0.3325985605286056	0.7506132141364457	1.8324778784052378	0.3040746956861805	0.6795155570053435	1.840294099097822	0.15929214854409784	0.6414916665122787	1.8357526681484118	0.23831648003296957	0.5909389650796582	0.588971494155435	0.33426217255140467	0.448102250083896	0.37753942003398955	0.34174331423919535	0.4677545609747554	0.5056806126867196	0.25575693766863344	0.822204327007931	0.5863953278479493	0.4659588580326075	0.7218925648056267	0.6144703666543023	0.5349568498733369	0.4854803202695207	0.6085712690544198	0.5490484441040737	0.28565578122928736	0.6167517016612282	0.5717164178014462	0.29731402878936425	0.6139344325779017	0.5738549855124222	0.3456815201279373	0.6268721675780867	0.18768495895960516	0.4160779126571858	0.6096198430627523	0.36328428719188655	0.30889227887415094	0.667362209789428	0.5389996250794932	0.14621320862268808	0.6304173026723604	0.5780207788015786	0.023912963956102307	0.6306659063414115	0.6022234724796944	0.043394552178023474	0.6273850104782442	0.6092631841159049	0.08432147158306026	0.6218456726630253
856	15.563636363636364	0.014022081920745132	1.0225305127972992	1.0826648101041385	0.18470233925904192	1.046928005530536	1.4194721329847506	0.07462695309836752	1.1442584665906916	1.8005037574225025	0.24435647821583376	1.1703222108504832	1.890696611296903	0.22128645910063904	1.1467401735945302	1.8605245948656939	0.019520767403411417	1.1955296512259215	1.8753744075339251	-0.01344692499113959	0.6651107395936269	1.0620982970169477	0.20246146062979595	0.6077230354045506	1.3983301171630345	0.22312308446183843	0.6401441977120891	1.8107256744793674	0.3351027603665815	0.7454038398834161	1.8300217851403004	0.30473692855906453	0.6682163325709818	1.8368779722750108	0.1598505811787215	0.6383875502516263	1.8358578598041353	0.23889601139033728	0.5917226568536912	0.5904932571859182	0.33185640038261954	0.44643148629310325	0.37805341794141634	0.34206309517749595	0.4680983510471509	0.5064915147517753	0.25412275545452945	0.8245888937629497	0.5821533851453916	0.4590142971919502	0.7652204302751032	0.6157379382667099	0.5273778728911054	0.54237936893892	0.6073870732668718	0.5167242361194748	0.3500019480720772	0.6137529416248783	0.5466478256017941	0.3654215639954363	0.6117449990377587	0.5609506799605635	0.4079235803679604	0.6236830635017231	0.1936450989954297	0.4116335659664956	0.6134252459014082	0.37454280251613964	0.30460187637822705	0.6701830390345296	0.5431467756904447	0.14678638988305417	0.6330970027164405	0.5756263446365684	0.026039675113952377	0.6309087571329592	0.60282254255085	0.04673300623624108	0.6285409026572352	0.6092671251100322	0.09073259362848778	0.6246720655430986
857	15.581818181818182	0.0057850023866732655	1.0216888324742424	1.0813846133065363	0.18310689212389583	1.0599913213449215	1.4189434742341245	0.0696804743250959	1.1409686679965048	1.7962382541586621	0.24181084669018937	1.1691399133077913	1.8871745092489918	0.21956277967624077	1.1479407260289434	1.8598083661366958	0.021987749150075002	1.1874946076178678	1.8705450222857125	-0.01473724252092708	0.6648207508796846	1.061943315524559	0.20278691602148333	0.6074553691567737	1.4001162406853	0.22348203166504327	0.6399720452874778	1.8122821964189622	0.3366023870138473	0.7386465959886865	1.8294063491302883	0.3047910426298085	0.6567827253177783	1.832755173786836	0.15970408476070364	0.6370983283690217	1.8360115443924316	0.23874097420206108	0.5916404809571979	0.5915431902801244	0.3313407308016954	0.45119320287546616	0.37936248596698896	0.343989531010657	0.4694688798991289	0.5071642918081536	0.24952647681851997	0.8208099621812533	0.5815867153870597	0.45423509135778156	0.7936112986797661	0.6202363106647708	0.5186712540952972	0.5807358921798467	0.6057195232073723	0.4969261671202116	0.3737052391213978	0.6043517252654306	0.5291608496639217	0.39164602795964565	0.6015789075844993	0.5564613283437456	0.4370420300336547	0.6178418843084127	0.1985683568346953	0.41067341019744497	0.6163974602095216	0.38517587712371587	0.3022158429187507	0.6717881067024194	0.5487160980802533	0.14941081519331695	0.6354256417490125	0.5811030080022238	0.035491392642701826	0.6333905071786967	0.6050293918772827	0.04848036822699003	0.6299688250763671	0.6140239987536511	0.10212148058636215	0.6267365193357716
858	15.6	-0.001966134731389433	1.0171210537754765	1.0796531158380425	0.18079656232026195	1.0702905161881544	1.4165224968230161	0.06521720858986707	1.1373427249453973	1.7895073527297045	0.24111188270654457	1.1694478435628677	1.8798228745383172	0.21905737087831162	1.148242321118663	1.8533549014288933	0.027922025293741087	1.1774302663943088	1.8577241862748022	-0.016354052651464803	0.6636347822573794	1.0620105694887956	0.20466282793130025	0.6060419432737042	1.4020925465795875	0.223579521927433	0.6397236296706867	1.8126328210249423	0.3395081318470173	0.7277637344855279	1.8275393299995588	0.30547818127119314	0.6498066603442026	1.8296968781699248	0.15864657417506942	0.6366330967069593	1.8359903393711154	0.23823494731894038	0.5907908336470221	0.5918200366290667	0.334321280557731	0.4585173210971156	0.3814616073604983	0.3474600136614261	0.47235964024764854	0.5076450361608668	0.24052424263639796	0.8167361540416525	0.5852436840541038	0.44649755918622935	0.8015533620733452	0.6268306152681731	0.5107348927258123	0.6019615488379823	0.6039123698726342	0.49241114129135893	0.3810861958131033	0.5871603056750619	0.5171897492439175	0.3957753396823096	0.5817062565295799	0.5573756365054293	0.45181067813257614	0.6082544275686512	0.20252893107992323	0.4114125373460449	0.6176625912652552	0.39265836507701946	0.3005259370019496	0.6737615739023405	0.5533512705274664	0.15060724567814499	0.6366680768686299	0.5949546689865642	0.04632036483479657	0.6384355276209535	0.6090488144765691	0.049107171908496505	0.6329605549461096	0.6224197050041865	0.11267007176112696	0.6310773676766517
